<svg id="레이어_1" data-name="레이어 1" xmlns="http://www.w3.org/2000/svg" viewBox="0 0 88.51 37"><defs><style>.cls-1{fill:#062c59;}.cls-2{fill:#12397d;}</style></defs><title>대지 10</title><polygon class="cls-1" points="0 25.6 5.83 14.04 0.08 4.71 0 25.6"/><polygon class="cls-2" points="2.65 37 17.11 23.68 7.86 27.67 2.65 37"/><polygon class="cls-2" points="14.03 0 0.12 26.95 9.17 22.35 17 12.87 14.03 0"/><polygon class="cls-1" points="9.17 22.35 0.12 26.95 7.86 27.67 17.11 23.68 9.17 22.35"/><path class="cls-2" d="M25.53,25.16,35,13.82H25.88V10.14h14v3.15l-9,11.34h9.12v3.68H25.53Z"/><path class="cls-2" d="M72.11,18.7a6.58,6.58,0,0,0-3.66-3.76,7.54,7.54,0,0,0-3-.58,7.63,7.63,0,0,0-3.06.58l-.18.08V9.7h-4V28.31h4v-.64l.18.08a8.64,8.64,0,0,0,6.12,0,6.76,6.76,0,0,0,2.27-1.52A6.61,6.61,0,0,0,72.12,24a7.63,7.63,0,0,0,0-5.3Zm-4,4.07a3.16,3.16,0,0,1-.63,1.11,2.82,2.82,0,0,1-4.26,0,3.73,3.73,0,0,1-.84-2.55,4.07,4.07,0,0,1,.23-1.42,3.31,3.31,0,0,1,.62-1.11,2.8,2.8,0,0,1,2.14-1,2.74,2.74,0,0,1,2.13,1,3.73,3.73,0,0,1,.84,2.55A4.31,4.31,0,0,1,68.14,22.77Z"/><path class="cls-2" d="M42,18.7a6.58,6.58,0,0,1,3.66-3.76,7.51,7.51,0,0,1,3.05-.58,7.63,7.63,0,0,1,3.06.58l.17.08V14h4V28.31h-4v-.64l-.17.08a8.64,8.64,0,0,1-6.12,0,6.76,6.76,0,0,1-2.27-1.52A6.45,6.45,0,0,1,42,24a7.48,7.48,0,0,1,0-5.3Zm4,4.07a3.16,3.16,0,0,0,.63,1.11,2.72,2.72,0,0,0,2.11,1,2.75,2.75,0,0,0,2.15-1,3.73,3.73,0,0,0,.84-2.55,4.07,4.07,0,0,0-.23-1.42,3.31,3.31,0,0,0-.62-1.11,2.79,2.79,0,0,0-1-.72,2.83,2.83,0,0,0-1.19-.26,2.72,2.72,0,0,0-2.13,1,3.73,3.73,0,0,0-.84,2.55A4.31,4.31,0,0,0,46,22.77Z"/><path class="cls-2" d="M81.31,28.31a8,8,0,0,1-3.06-.56A6.71,6.71,0,0,1,76,26.23,6.48,6.48,0,0,1,74.59,24a7.71,7.71,0,0,1,0-5.3A6.48,6.48,0,0,1,76,16.47a6.74,6.74,0,0,1,2.26-1.53,7.63,7.63,0,0,1,3.06-.58,7.51,7.51,0,0,1,3,.58,6.69,6.69,0,0,1,2.25,1.53A6.5,6.5,0,0,1,88,18.7,7.48,7.48,0,0,1,88,24a6.45,6.45,0,0,1-1.39,2.23,6.76,6.76,0,0,1-2.27,1.52A7.91,7.91,0,0,1,81.31,28.31Zm-3-7a3.73,3.73,0,0,0,.84,2.55,2.86,2.86,0,0,0,3.33.7,2.85,2.85,0,0,0,.94-.72,3.31,3.31,0,0,0,.62-1.11,4.07,4.07,0,0,0,.23-1.42,3.73,3.73,0,0,0-.84-2.55,2.72,2.72,0,0,0-2.13-1,2.83,2.83,0,0,0-1.19.26,2.75,2.75,0,0,0-.94.72,3.16,3.16,0,0,0-.63,1.11A4.07,4.07,0,0,0,78.32,21.35Z"/></svg>