<svg xmlns="http://www.w3.org/2000/svg" viewBox="0 0 261.83 109.46"><defs><style>.cls-1{fill:#042e60;}.cls-2{fill:#12397d;}</style></defs><title>자산 1</title><g id="레이어_2" data-name="레이어 2"><g id="레이어_1-2" data-name="레이어 1"><polygon class="cls-1" points="0 75.74 17.25 41.55 0.24 13.95 0 75.74"/><polygon class="cls-2" points="7.83 109.46 50.6 70.06 23.26 81.86 7.83 109.46"/><polygon class="cls-2" points="41.5 0 0.36 79.71 27.14 66.12 50.29 38.07 41.5 0"/><polygon class="cls-1" points="27.14 66.12 0.36 79.71 23.26 81.86 50.6 70.06 27.14 66.12"/><path class="cls-2" d="M75.51,74.44l28-33.55h-27V30h41.28V39.3L91.19,72.85h27V83.76H75.51Z"/><path class="cls-2" d="M213.32,55.32a19.55,19.55,0,0,0-4.17-6.59,20.27,20.27,0,0,0-6.66-4.54,22.45,22.45,0,0,0-9-1.71,22.68,22.68,0,0,0-9,1.71l-.53.25V28.7H172.12V83.76H183.9V81.84l.53.25a25.36,25.36,0,0,0,18.1,0,19.75,19.75,0,0,0,6.7-4.5A19.12,19.12,0,0,0,213.35,71a22.12,22.12,0,0,0,1.41-7.84A21.67,21.67,0,0,0,213.32,55.32Zm-11.74,12a10.17,10.17,0,0,1-1.86,3.3A8.5,8.5,0,0,1,197,72.78a8.53,8.53,0,0,1-9.85-2.09,11,11,0,0,1-2.49-7.53,12.34,12.34,0,0,1,.68-4.2,10.15,10.15,0,0,1,1.85-3.3,8.23,8.23,0,0,1,6.33-2.88,8,8,0,0,1,6.28,2.84,11,11,0,0,1,2.5,7.54A12.67,12.67,0,0,1,201.58,67.36Z"/><path class="cls-2" d="M124.25,55.32a19.55,19.55,0,0,1,4.17-6.59,20.17,20.17,0,0,1,6.66-4.54,22.45,22.45,0,0,1,9-1.71,22.68,22.68,0,0,1,9,1.71l.53.25v-3h11.77v42.3H153.67V81.84l-.53.25a25.36,25.36,0,0,1-18.1,0,19.75,19.75,0,0,1-6.7-4.5A19.14,19.14,0,0,1,124.21,71a22.34,22.34,0,0,1-1.4-7.84A21.67,21.67,0,0,1,124.25,55.32Zm11.74,12a10.15,10.15,0,0,0,1.85,3.3,8.65,8.65,0,0,0,2.77,2.12,8.51,8.51,0,0,0,9.84-2.09,11,11,0,0,0,2.5-7.53,12.34,12.34,0,0,0-.68-4.2,10.15,10.15,0,0,0-1.85-3.3,8.35,8.35,0,0,0-2.81-2.12,8.27,8.27,0,0,0-3.52-.76,8,8,0,0,0-6.28,2.84,11,11,0,0,0-2.5,7.54A12.67,12.67,0,0,0,136,67.36Z"/><path class="cls-2" d="M240.55,83.76a23.25,23.25,0,0,1-9.05-1.67,19.75,19.75,0,0,1-6.7-4.5A19,19,0,0,1,220.67,71a22.65,22.65,0,0,1,0-15.68,19,19,0,0,1,4.13-6.59,20.14,20.14,0,0,1,6.7-4.54,22.72,22.72,0,0,1,9.05-1.71,22.41,22.41,0,0,1,9,1.71,20.21,20.21,0,0,1,6.67,4.54,19.68,19.68,0,0,1,4.16,6.59,21.67,21.67,0,0,1,1.44,7.84,22.34,22.34,0,0,1-1.4,7.84,19.14,19.14,0,0,1-4.13,6.59,19.75,19.75,0,0,1-6.7,4.5A23.25,23.25,0,0,1,240.55,83.76Zm-8.86-20.6a11,11,0,0,0,2.5,7.53A8.51,8.51,0,0,0,244,72.78a8.65,8.65,0,0,0,2.77-2.12,10.15,10.15,0,0,0,1.85-3.3,12.42,12.42,0,0,0,.69-4.2,11,11,0,0,0-2.5-7.54,8,8,0,0,0-6.29-2.84,8.3,8.3,0,0,0-3.52.76,8.22,8.22,0,0,0-2.8,2.12,10.17,10.17,0,0,0-1.86,3.3A12.58,12.58,0,0,0,231.69,63.16Z"/></g></g></svg>